<svg xmlns="http://www.w3.org/2000/svg" width="123.759" height="94.104" viewBox="0 0 123.759 94.104">
  <g id="batu" transform="translate(-101.048 -324.841)">
    <path id="Path_293" data-name="Path 293" d="M133.074,42.816c3.355,5.132.027,16.955-2.038,21.465a29.908,29.908,0,0,1-18.083,15.891c-10.444,3.535-21.239,3.193-32.134,1.461C64.107,78.963,41.8,66.4,35.905,49.328c-1.407-4.049-1.209-7.585,1.317-12.87C41.19,29.432,45.907,24.9,53.627,20.1c7.071-4.906,26.56,5.051,33.748,12.554,3.788,3.95-.388,7.837-4.455,8.6-9.533,2.363-16.649.415-21.591-5.42-.18,1.082,5.817,4.509,6.169,5.565.09.289-5.772,1-5.754,1.308A27.068,27.068,0,0,1,81.919,45C98.405,42.194,115.739,42.519,133.074,42.816Z" transform="translate(76.23 324.825)" fill="#f9d3ba" stroke="#7d513b" stroke-miterlimit="22.926" stroke-width="5.18" fill-rule="evenodd"/>
    <path id="Path_294" data-name="Path 294" d="M38.065,47.708c-2.011-6.773,3.171-15.126,14.174-22.81-17.758,24.63-7.931,42.159,48.238,55.769-14.827,1.272-25.9-.984-38.8-7.82-11.86-6.232-21.318-15.191-23.609-25.139Z" transform="translate(75.973 324.24)" fill="#f3b091" fill-rule="evenodd"/>
    <path id="Path_295" data-name="Path 295" d="M82.39,48.33c1.245,3.12,5.862,5.42,11.165,5.222,3.9-.144,8.4-1.641,11.048-4.618,4.7,7.513,11.688,8.947,18.353,2.336.018-.018.1-.144.126-.126,4.185,2.868,8.784,3.211,13.7,2.083-3.535,5.736-9.578,2.525-13.312-.532-4.284,6.052-14.656,5.032-18.8-.794-4.275,4.627-19.2,8.243-22.276-3.571Z" transform="translate(71.583 321.926)" fill="rgba(51,44,43,0.19)" fill-rule="evenodd"/>
    <path id="Path_296" data-name="Path 296" d="M125.58,21.415q.514,10.525,1.037,21.059c.812,2.7,1.533,3.824,4.194,5a14.5,14.5,0,0,0,8.911.649c10.94-2.137,7.909-24.531,2.11-27.8-3.238-1.831-7.377-3.292-10.308-2.507-2.606.9-4.735,1.452-5.943,3.6Z" transform="translate(67.345 324.942)" fill="#f9d3ba" stroke="#7d513b" stroke-miterlimit="22.926" stroke-width="5.18" fill-rule="evenodd"/>
    <path id="Path_297" data-name="Path 297" d="M136.016,48.082c-2.9-.3-5.916-.946-6.376-3.426l2.2-5.556c3.788,4.428,6.251,3.836,12.266,3.7-1.163,3.869-3.212,5.543-8.091,5.281Z" transform="translate(66.947 322.832)" fill="#f3b091" fill-rule="evenodd"/>
    <path id="Path_298" data-name="Path 298" d="M105.41,13.257c.036,1.425.027,2.137.063,3.562,0,7.846,2.1,16.5,2.1,24.342,7.44,18.579,27.48,2.859,19.5-23.855C125,10.335,108.179,4.022,105.41,13.257Z" transform="translate(69.325 325.822)" fill="#f9d3ba" stroke="#7d513b" stroke-miterlimit="22.926" stroke-width="5.18" fill-rule="evenodd"/>
    <path id="Path_299" data-name="Path 299" d="M112.82,11.487c-3,11.676.484,24.743,4.249,35.47-3.443.972-6.653-4.986-8.427-8.861-.1-3.45.19-7.334-.154-10.993-.027-.308-.507-3.884-.507-4.176a70.243,70.243,0,0,1-.274-8.14c1.032-2.25,1.55-3.362,5.112-3.3Z" transform="translate(69.202 325.57)" fill="#f3b091" fill-rule="evenodd"/>
    <path id="Path_300" data-name="Path 300" d="M83.335,40.72c-.009-.081,4-.424,6.647-2.146,2.291-1.506,3.95-3.725,2.949-5.411-1.984-3.328-6.647-6.43-9.858-8.676C81.811,23.6,80.2,22.673,80.116,22.2c-.253-1.578-.415-3.247-.676-4.825C77.7,3.4,99.262.992,101.869,11.346c5.231,20.689,3.346,28.734.532,31.981C98.216,48.151,84.7,49.035,83.335,40.72Z" transform="translate(71.883 326.182)" fill="#f9d3ba" stroke="#7d513b" stroke-miterlimit="22.926" stroke-width="5.18" fill-rule="evenodd"/>
    <path id="Path_301" data-name="Path 301" d="M87.736,8.289c-1.6,7.878-1.148,10.692.226,16.369-.969-.771-4.641-3.2-6.238-4.264C81.3,17.214,82.067,9.488,87.736,8.289Z" transform="translate(71.723 326.176)" fill="#f3b091" fill-rule="evenodd"/>
    <path id="Path_302" data-name="Path 302" d="M86.846,46.428a20.685,20.685,0,0,0,5.313-2.55,5.789,5.789,0,0,0,2.75,4.1C94.509,48.315,88.533,48.82,86.846,46.428Z" transform="translate(72.101 322.353)" fill="#f7b496" fill-rule="evenodd"/>
    <path id="Path_303" data-name="Path 303" d="M55.15,18.363c-.063-8.856,6.1-15.431,11.607-15.756,4.6-.271,9.524,1.894,11.508,6.322,3.716,8.27,2.174,15.494.875,14.268-3.048-2.85-19.39-8.108-23.99-4.834Z" transform="translate(74.256 326.415)" fill="#f9d3ba" stroke="#7d513b" stroke-miterlimit="22.926" stroke-width="5.18" fill-rule="evenodd"/>
    <path id="Path_304" data-name="Path 304" d="M63.958,6.156c-1.752.758-4.791,3.806-5.9,8.694a30.672,30.672,0,0,1,7.474.509c-2.511-2.446-2.158-5.107-1.574-9.2Z" transform="translate(74.287 326.402)" fill="#f3b091" fill-rule="evenodd"/>
    <path id="Path_305" data-name="Path 305" d="M58.21,88.05C77.294,95.788,96,99.9,118.483,92.3" transform="translate(73.956 320.029)" fill="none" stroke="#f7b496" stroke-miterlimit="22.926" stroke-width="5.18" fill-rule="evenodd"/>
    <path id="Path_306" data-name="Path 306" d="M41.416,19.98C30.593,28.124,26.481,34.563,26.58,48.155" transform="translate(77.06 324.708)" fill="none" stroke="#f7b496" stroke-miterlimit="22.926" stroke-width="5.18" fill-rule="evenodd"/>
    <path id="Path_307" data-name="Path 307" d="M105.79,4.913c7.991-4.69,18.77.37,24.5,5.8" transform="translate(69.287 324.4)" fill="none" stroke="#f7b496" stroke-miterlimit="22.926" stroke-width="5.18" fill-rule="evenodd"/>
    <path id="Path_308" data-name="Path 308" d="M149.37,16.85c6.259,7.242,7.4,19.526,3.752,28.427" transform="translate(67.011 325.015)" fill="none" stroke="#f7b496" stroke-miterlimit="22.926" stroke-width="5.18" fill-rule="evenodd"/>
  </g>
</svg>
