<svg xmlns="http://www.w3.org/2000/svg" width="86.651" height="117.794" viewBox="0 0 86.651 117.794">
  <g id="kertas" transform="translate(-79.482 -419.053)">
    <path id="Path_325" data-name="Path 325" d="M18.363,216.4c14.818,3.166,29.987,2.192,44.345.586,6.872-.776,13.645-6.755,13.844-14.43.514-19.76-.658-38.772.108-58.775.352-9.145-13.835-7.242-13.618-.153v-23.1c.045-5.42-10.426-6.99-11.337-.821,2.264-13.384-17.938-12.148-15.5-1.172-1.2-8.279-14.2-7.179-15.341,3.166l-1.7,28.355c-2.525-10.75-14.448-8.793-15.738-1.551-.072,15.711-1.7,31.494-.207,47.132.884,9.289,6.6,18.939,15.152,20.761Z" transform="translate(79.414 315.876)" fill="#fcd4be" stroke="#7d513b" stroke-miterlimit="22.926" stroke-width="5.18" fill-rule="evenodd"/>
    <line id="Line_10" data-name="Line 10" x2="0.027" y2="52.065" transform="translate(115.589 434.028)" fill="none" stroke="#7d513b" stroke-miterlimit="22.926" stroke-width="5.18"/>
    <line id="Line_11" data-name="Line 11" y2="51.66" transform="translate(131.237 434.416)" fill="none" stroke="#7d513b" stroke-miterlimit="22.926" stroke-width="5.18"/>
    <line id="Line_12" data-name="Line 12" y2="29.509" transform="translate(142.456 459.001)" fill="none" stroke="#7d513b" stroke-miterlimit="22.926" stroke-width="5.18"/>
    <path id="Path_326" data-name="Path 326" d="M20.96,154.42v29.825c14.755,5.3,17.9,13.1,18.173,21.51" transform="translate(77.611 311.517)" fill="none" stroke="#7d513b" stroke-miterlimit="22.926" stroke-width="5.18" fill-rule="evenodd"/>
    <path id="Path_327" data-name="Path 327" d="M5.241,198.355a122.577,122.577,0,0,1-.334-16.506l.523-28.813a4.764,4.764,0,0,1,4.7-4.4c-.041,22.146-2.685,39.774.885,51.364,4.206,13.663,16.742,18.731,42.57,18.746-16.055,1.159-22.985,1.538-35.34-1.521-8.42-2.087-12.031-11.246-13.006-18.874Z" transform="translate(79.79 312.378)" fill="#f3b091" fill-rule="evenodd"/>
    <path id="Path_328" data-name="Path 328" d="M25.044,125.253c-.586,9.479-1.3,16.171-1.533,25.857-.2,8.036.027,19.724.009,27.769,2.57-3.923,5.97-7.738,10.191-8.162-3.075-.676-4.717-3.869-4.464-7.332-1.335-14.385-.112-29.8.736-46.847-3.021,1.127-4.921,2.907-4.939,8.715Z" transform="translate(77.369 315.26)" fill="#f3b091" fill-rule="evenodd"/>
    <path id="Path_329" data-name="Path 329" d="M42.178,117.994c-.316,17.469-.28,34.38.225,52.444,1.245-.577,3.021-.785,7.224-.622C43.188,154.854,44.875,134.607,47,112.61c-3.139.28-5.312,2.3-4.825,5.384Z" transform="translate(75.549 315.619)" fill="#f3b091" fill-rule="evenodd"/>
    <path id="Path_330" data-name="Path 330" d="M59.62,121.4c-.14-2.235,1.553-2.69,3.222-2.477-.934,8.1-1.017,42.9.815,52.555a6.222,6.222,0,0,0-3.867-.709Z" transform="translate(74.052 315.275)" fill="#f3b091" fill-rule="evenodd"/>
    <path id="Path_331" data-name="Path 331" d="M77.273,143.11c-2.841,10.158-3.752,21.7-.613,33.022-1.515-.2-1.867-1.206-4.482-.536l-.1-25.74C72.06,146.21,71.618,143.878,77.273,143.11Z" transform="translate(72.597 312.938)" fill="#f3b091" fill-rule="evenodd"/>
    <path id="Path_332" data-name="Path 332" d="M25.4,105c-9.632,4.852-12.1,12.365-11.508,21" transform="translate(78.313 316.366)" fill="none" stroke="#f3b091" stroke-miterlimit="22.926" stroke-width="5.18" fill-rule="evenodd"/>
    <path id="Path_333" data-name="Path 333" d="M78.23,133.586c10.011-2.056,12.59,6.43,11.9,15.792" transform="translate(71.992 313.591)" fill="none" stroke="#f3b091" stroke-miterlimit="22.926" stroke-width="5.18" fill-rule="evenodd"/>
    <path id="Path_334" data-name="Path 334" d="M93,163.08V191.6" transform="translate(70.542 310.667)" fill="none" stroke="#f3b091" stroke-miterlimit="22.926" stroke-width="5.18" fill-rule="evenodd"/>
  </g>
</svg>
