<svg xmlns="http://www.w3.org/2000/svg" width="187.43" height="187.43" viewBox="0 0 187.43 187.43"><g transform="translate(-70.785 -132.785)"><circle cx="93.5" cy="93.5" r="93.5" transform="translate(71 133)" fill="#6c63ff" stroke="#6c63ff" stroke-miterlimit="22.926" stroke-width="0.43"/><circle cx="8.362" cy="8.362" r="8.362" transform="translate(92.858 248.056)" fill="#564fcc" stroke="#564fcc" stroke-miterlimit="22.926" stroke-width="2.5"/><circle cx="8.362" cy="8.362" r="8.362" transform="translate(89.916 176.773)" fill="#564fcc" stroke="#564fcc" stroke-miterlimit="22.926" stroke-width="2.5"/><path d="M3.26,14.2c14.879-1.961,23.934,1.1,34.026,12.342C25.406,30,10.354,24,3.26,14.2Z" transform="translate(85.33 196.833)" fill="#564fcc" stroke="#564fcc" stroke-miterlimit="22.926" stroke-width="2.5" fill-rule="evenodd"/><path d="M3.82,25.722c10.439-1.442,16.84.75,23.934,8.651-8.362,2.48-18.974-1.73-23.934-8.651Z" transform="translate(88 252.438)" fill="#564fcc" stroke="#564fcc" stroke-miterlimit="22.926" stroke-width="2.5" fill-rule="evenodd"/><path d="M6.81,10.58C34.2,35.956,33.858,63.407,41.24,90.456" transform="translate(102.254 182.226)" fill="none" stroke="#564fcc" stroke-miterlimit="22.926" stroke-width="2.5" fill-rule="evenodd"/><path d="M6.94,23.37c10.958,9.8,12.8,26.7,17.244,39.967" transform="translate(102.873 243.198)" fill="none" stroke="#564fcc" stroke-miterlimit="22.926" stroke-width="2.5" fill-rule="evenodd"/><path d="M24.1,88.2C17.752,84.449,11.35,80.585,5.41,74.818c1.1-1.269,2.134-3.287,4.325-4.96L76.693,18.53l26.356,6.286q25.779,9.083,51.5,18.224c-9,20.762-24.857,37.487-49.54,49.079-16.9,6.69-33.738,8.881-50.578,6.229C44.569,96.1,34.707,93.907,24.1,88.2Z" transform="translate(95.58 220.125)" fill="#2f2e41" stroke="#2f2e41" stroke-miterlimit="22.926" stroke-width="0.43" fill-rule="evenodd"/><path d="M77.915,55.509c2.019,3.922,3.864,7.843,5.883,11.765-.75,10.785-6.056,19.551-19.378,22.492-8.535,1.9-17.417-1.845-26.3-14.13-.577-3-1.1-5.94-1.672-8.939A37.374,37.374,0,0,1,15.918,46.974C9.4,37.862,7.44,25.866,12.112,9.833c21.569-.058,45.676-.115,67.245-.173.865,1.615,3.287,9.17,3.345,9.285,2.134,2.768,1.961,4.787,2.653,6.978a42.575,42.575,0,0,1-1.038,17.705A44.714,44.714,0,0,1,77.915,55.509Z" transform="translate(115.291 177.84)" fill="#d0cde1" stroke="#d0cde1" stroke-miterlimit="22.926" stroke-width="0.43" fill-rule="evenodd"/><path d="M20.1,68.877c1.845,0,3.749,1.788,5.71,3.806q1.9-17.475,3.806-34.834a157.063,157.063,0,0,0,24.626.98,81.749,81.749,0,0,0,16.9-2.365c4.095-1.038,8.881.98,11.477,4.268a21.1,21.1,0,0,1,4.5,9.689c.692-6.863,1.5-13.784.346-22.088-.577-4.383-5.017-9.285-12.572-13.322C63.234,8.726,52.738,4.862,44.606,5.035a24.363,24.363,0,0,0-15.11,5.71A42.179,42.179,0,0,0,18.019,25.393c-3.4,1.557-6.056,4.671-7.5,10.842a56.953,56.953,0,0,0,2.653,31.2,5.445,5.445,0,0,0,2.307,2.941c.288.173.865.173,1.557-.634A8.566,8.566,0,0,1,20.1,68.877Z" transform="translate(114.978 155.763)" fill="#2f2e41" stroke="#2f2e41" stroke-miterlimit="22.926" stroke-width="0.43" fill-rule="evenodd"/></g></svg>