<svg xmlns="http://www.w3.org/2000/svg" width="291.723" height="216.7" viewBox="0 0 291.723 216.7"><g transform="translate(-34 -79.93)"><g transform="translate(15)"><path d="M36.691,38.788c-3.146-1.163-7.385-8.52-3.214-10.107,5.129.073,8.823-.654,12.447-2.763,6.5-3.636,10.464-2.618,12.584-2.69,3.214,0,2.257,1.236,3.009,2.618,2.667,5.163,8.412,6.69,8.891,11.489.205,1.963-3.214,5.09-5.608,5.09-10.054-.509-19.355-.291-28.109-3.636Z" transform="translate(218.432 223.76)" fill="rgba(51,44,43,0.5)" fill-rule="evenodd"/><path d="M10.4,51.117c-2.324-.557-7.537-4.6-6.9-6.826,1.691-5.99,9.932-7.522,16.271-14.139a22.638,22.638,0,0,0,1.691-2.786c.775-1.323,2.465-1.532,4.156-1.254A46.64,46.64,0,0,1,44.35,32.729c.845.557,1.057,1.811,1.9,2.368,5.142,3.065,9.227,3.9,15.708,5.433,1.479.348-1.2,13.234-9.016,13.512A246.779,246.779,0,0,1,10.4,51.117Z" transform="translate(41.967 242.572)" fill="rgba(51,44,43,0.5)" fill-rule="evenodd"/><path d="M81.822,26.38c39.483,0,71.549,5.381,71.549,12s-32.066,12-71.549,12c-39.556,0-71.622-5.381-71.622-12S42.266,26.38,81.822,26.38Z" transform="translate(82.967 244.927)" fill="#d2d3d4" fill-rule="evenodd"/><rect width="36.72" height="14.324" rx="4" transform="translate(47.94 116.283)" fill="#bdb9ff"/><rect width="36.72" height="14.324" rx="4" transform="translate(84.587 116.283)" fill="#b1a0f2" stroke="#b1a0f2" stroke-miterlimit="22.926" stroke-width="0.14"/><rect width="36.72" height="14.324" rx="4" transform="translate(121.307 116.283)" fill="#bdb9ff"/><rect width="36.72" height="14.324" rx="4" transform="translate(25.253 130.753)" fill="#bdb9ff"/><rect width="34.611" height="14.324" rx="4" transform="translate(61.973 130.753)" fill="#b1a0f2"/><rect width="36.72" height="14.324" rx="4" transform="translate(96.584 130.753)" fill="#bdb9ff"/><rect width="36.647" height="14.324" rx="3" transform="translate(60.592 159.475)" fill="#b1a0f2"/><rect width="37.156" height="14.324" rx="3" transform="translate(73.825 145.078)" fill="#b1a0f2"/><rect width="35.92" height="14.324" rx="3" transform="translate(60.737 187.76)" fill="#b1a0f2"/><rect width="36.574" height="14.324" rx="3" transform="translate(75.134 173.508)" fill="#b1a0f2"/><rect width="36.647" height="14.324" rx="4" transform="translate(55.72 216.336)" fill="#b1a0f2" stroke="#b1a0f2" stroke-miterlimit="22.926" stroke-width="0.14"/><rect width="36.574" height="14.324" rx="3" transform="translate(80.151 202.084)" fill="#b1a0f2"/><rect width="36.72" height="14.324" rx="3" transform="translate(37.105 145.078)" fill="#bdb9ff"/><rect width="36.72" height="14.324" rx="4" transform="translate(110.981 145.078)" fill="#bdb9ff"/><rect width="36.72" height="14.324" rx="3" transform="translate(23.872 159.475)" fill="#bdb9ff"/><rect width="36.72" height="14.324" rx="4" transform="translate(38.342 173.508)" fill="#bdb9ff"/><rect width="36.72" height="14.324" rx="4" transform="translate(23.944 187.76)" fill="#bdb9ff"/><rect width="36.72" height="14.324" rx="3" transform="translate(43.431 202.084)" fill="#bdb9ff"/><rect width="36.72" height="14.324" rx="3" transform="translate(97.166 159.475)" fill="#bdb9ff"/><rect width="36.72" height="14.324" rx="3" transform="translate(96.657 187.76)" fill="#bdb9ff"/><rect width="36.72" height="14.324" rx="3" transform="translate(92.367 216.336)" fill="#bdb9ff"/><rect width="36.72" height="14.324" rx="4" transform="translate(19 216.336)" fill="#bdb9ff"/><rect width="36.211" height="14.324" rx="4" transform="translate(274.512 216.336)" fill="#b1a0f2"/><rect width="36.72" height="14.324" rx="4" transform="translate(193.437 116.283)" fill="#b1a0f2"/><rect width="36.72" height="14.324" rx="4" transform="translate(230.23 116.283)" fill="#bdb9ff"/><rect width="34.684" height="14.324" rx="4" transform="translate(207.544 130.753)" fill="#bdb9ff"/><rect width="37.592" height="14.324" rx="4" transform="translate(242.227 130.753)" fill="#b1a0f2"/><rect width="36.647" height="14.324" rx="4" transform="translate(206.162 159.475)" fill="#bdb9ff"/><rect width="37.156" height="14.324" rx="4" transform="translate(219.468 145.078)" fill="#b1a0f2"/><rect width="35.92" height="14.324" rx="4" transform="translate(206.235 187.76)" fill="#bdb9ff"/><rect width="36.574" height="14.324" rx="4" transform="translate(220.632 173.508)" fill="#b1a0f2"/><rect width="31.048" height="14.324" rx="4" transform="translate(206.889 216.336)" fill="#b1a0f2"/><rect width="36.574" height="14.324" rx="4" transform="translate(226.522 202.084)" fill="#b1a0f2"/><rect width="36.72" height="14.324" rx="4" transform="translate(182.676 145.078)" fill="#bdb9ff"/><rect width="36.72" height="14.324" rx="3" transform="translate(256.552 145.078)" fill="#bdb9ff"/><rect width="36.72" height="14.324" rx="4" transform="translate(257.206 173.508)" fill="#bdb9ff"/><rect width="36.865" height="14.324" rx="4" transform="translate(263.096 202.084)" fill="#bdb9ff"/><rect width="36.72" height="14.324" rx="4" transform="translate(242.882 159.475)" fill="#b1a0f2"/><rect width="36.72" height="14.324" rx="4" transform="translate(242.227 187.76)" fill="#b1a0f2"/><rect width="36.72" height="14.324" rx="4" transform="translate(237.937 216.336)" fill="#bdb9ff"/><path d="M36.051,25.23,31.47,22.9l.436-.8,2.908,1.454-.073-3.345.945-.073Z" transform="translate(216.356 205.794)" fill="#fac10d" fill-rule="evenodd"/><path d="M36.76,25.19l4.581-2.4-.509-.8L38,23.445l.073-3.345H37.051Z" transform="translate(249.531 205.543)" fill="#fac10d" fill-rule="evenodd"/><path d="M51.329,35.391c-1.236.582-2.69.218-3.854.654-4.8,1.818-7.126,4.8-9.162,8.071a5.609,5.609,0,0,0-.509,1.891c-1.018.291-1.963.582-2.981.8a6.225,6.225,0,0,1-.364-1.672,4.846,4.846,0,0,1,.291-2.69c2.4-4.217,5.526-8.071,8.289-12.143,2.472-3.854,2.618-6.4,1.6-10.761a48.474,48.474,0,0,1,5.526,6.617,16.033,16.033,0,0,1,2.472,5.526c.291,1.891,0,3.054-1.309,3.708Z" transform="translate(234.817 202.031)" fill="#fc6681" stroke="#fc6681" stroke-miterlimit="22.926" stroke-width="0.36" fill-rule="evenodd"/><path d="M33.268,35.391c1.236.582,2.763.218,3.854.654,4.8,1.818,7.126,4.8,9.162,8.071a30.7,30.7,0,0,1,1.454,4.363c1.018.218,2.981-1.091,4-.8a37.633,37.633,0,0,0-1.818-5.235c-2.472-4.217-5.6-8.071-8.362-12.143-2.472-3.854-2.618-6.4-1.527-10.761a48.972,48.972,0,0,0-5.6,6.617,16.033,16.033,0,0,0-2.472,5.526c-.291,1.891,0,3.054,1.309,3.708Z" transform="translate(218.776 202.031)" fill="#fc6681" stroke="#fc6681" stroke-miterlimit="22.926" stroke-width="0.36" fill-rule="evenodd"/><path d="M36.543,38.368c-3.272-1.163-4.217-4.8-4.072-8.144.073-1.309-2.254-2.036.654-1.963,5.526.073,9.38-.654,13.306-2.763,6.835-3.636,11.125-2.618,13.379-2.69,3.418,0,2.327,1.236,3.127,2.618,2.908,5.163,7.78,9.089,8.362,13.888.218,2.036-2.254,2.69-4.8,2.69-10.761-.509-20.578-.291-29.958-3.636Z" transform="translate(217.537 222.032)" fill="#a8a8a8" stroke="#a8a8a8" stroke-miterlimit="22.926" stroke-width="0.36" fill-rule="evenodd"/><rect width="8.653" height="6.762" transform="translate(148.137 247.748)" fill="#4b45b2" stroke="#4b45b2" stroke-miterlimit="22.926" stroke-width="0.36"/><rect width="8.653" height="5.962" transform="translate(148.137 254.51)" fill="#6c63ff" stroke="#6c63ff" stroke-miterlimit="22.926" stroke-width="0.36"/><rect width="8.653" height="4.654" transform="translate(148.137 268.98)" fill="#6c63ff" stroke="#6c63ff" stroke-miterlimit="22.926" stroke-width="0.36"/><rect width="8.653" height="2.836" transform="translate(148.137 273.561)" fill="#4b45b2" stroke="#4b45b2" stroke-miterlimit="22.926" stroke-width="0.36"/><rect width="8.653" height="6.762" transform="translate(173.805 247.748)" fill="#4b45b2" stroke="#4b45b2" stroke-miterlimit="22.926" stroke-width="0.36"/><rect width="8.653" height="5.962" transform="translate(173.805 254.51)" fill="#6c63ff" stroke="#6c63ff" stroke-miterlimit="22.926" stroke-width="0.36"/><rect width="8.653" height="4.654" transform="translate(173.805 268.98)" fill="#6c63ff" stroke="#6c63ff" stroke-miterlimit="22.926" stroke-width="0.36"/><rect width="8.653" height="2.836" transform="translate(173.805 273.561)" fill="#4b45b2" stroke="#4b45b2" stroke-miterlimit="22.926" stroke-width="0.36"/><path d="M20.656,11.12H75.495c2.317,0,5.336.423,5.336,2.751V34.825c0,2.258-3.019,5.573-5.336,5.573H20.656c-2.317,0-5.266-3.316-5.266-5.644V13.8C15.39,11.543,18.339,11.12,20.656,11.12Z" transform="translate(116.678 149.227)" fill="rgba(51,44,43,0.4)" fill-rule="evenodd"/><rect width="65.441" height="30.176" rx="5" transform="translate(132.068 157.584)" fill="#6c63ff" stroke="#6c63ff" stroke-miterlimit="22.926" stroke-width="0.36"/><rect width="54.971" height="20.868" transform="translate(137.449 162.238)" fill="#5758bd" stroke="#5758bd" stroke-miterlimit="22.926" stroke-width="0.36"/><circle cx="7.489" cy="7.489" r="7.489" transform="translate(142.539 165.728)" fill="#433d9f" stroke="#433d9f" stroke-miterlimit="22.926" stroke-width="0.36"/><circle cx="7.489" cy="7.489" r="7.489" transform="translate(172.205 165.728)" fill="#433d9f" stroke="#433d9f" stroke-miterlimit="22.926" stroke-width="0.36"/><rect width="47.409" height="38.101" transform="translate(141.157 192.923)" fill="#6c63ff" stroke="#6c63ff" stroke-miterlimit="22.926" stroke-width="0.36"/><rect width="11.707" height="5.09" transform="translate(158.899 187.833)" fill="#6c63ff" stroke="#6c63ff" stroke-miterlimit="22.926" stroke-width="0.36"/><rect width="49.445" height="5.163" transform="translate(140.066 238.222)" fill="#6c63ff" stroke="#6c63ff" stroke-miterlimit="22.926" stroke-width="0.36"/><rect width="8.653" height="8.507" transform="translate(148.137 260.472)" fill="#4b45b2" stroke="#4b45b2" stroke-miterlimit="22.926" stroke-width="0.36"/><rect width="8.653" height="8.507" transform="translate(173.805 260.472)" fill="#4b45b2" stroke="#4b45b2" stroke-miterlimit="22.926" stroke-width="0.36"/><path d="M24.233,25.871c0-3.054,0-6.108-.073-9.089A13.36,13.36,0,0,1,32.086,18.6c-.291,3.49-.727,6.762-1.091,10.18A10.2,10.2,0,0,0,24.233,25.871Z" transform="translate(170.513 184.358)" fill="#4b45b2" stroke="#4b45b2" stroke-miterlimit="22.926" stroke-width="0.36" fill-rule="evenodd"/><path d="M25.13,27.305c.291-3.417.582-6.835.873-10.325A22.874,22.874,0,0,1,36.255,27.96c-2.618,1.6-4.8,3.054-7.417,4.654A13.373,13.373,0,0,0,25.13,27.305Z" transform="translate(176.597 185.977)" fill="#6c63ff" stroke="#6c63ff" stroke-miterlimit="22.926" stroke-width="0.36" fill-rule="evenodd"/><path d="M33.129,18.5c-2.69,1.672-4.872,2.981-7.489,4.581a21.5,21.5,0,0,1,1.672,8.435c3.054-.8,5.817-1.6,8.871-2.4A37.527,37.527,0,0,0,33.129,18.5Z" transform="translate(179.795 195.509)" fill="#4b45b2" stroke="#4b45b2" stroke-miterlimit="22.926" stroke-width="0.36" fill-rule="evenodd"/><path d="M34.929,19.96c-3.054.8-5.817,1.6-8.871,2.4-.145,3.926-.073,7.853-.218,11.416h9.525A99.853,99.853,0,0,0,34.929,19.96Z" transform="translate(181.049 204.665)" fill="#6c63ff" stroke="#6c63ff" stroke-miterlimit="22.926" stroke-width="0.36" fill-rule="evenodd"/><path d="M27.591,13.3V38.459H24.173V13.3a3.8,3.8,0,0,1-1.963-3.272A3.662,3.662,0,0,1,25.846,6.32a3.724,3.724,0,0,1,3.708,3.708A3.8,3.8,0,0,1,27.591,13.3Z" transform="translate(158.285 119.125)" fill="#6c63ff" stroke="#6c63ff" stroke-miterlimit="22.926" stroke-width="0.36" fill-rule="evenodd"/><path d="M20.718,6.32a3.662,3.662,0,0,1,3.636,3.708A3.8,3.8,0,0,1,22.391,13.3V38.459H19.046V13.3a3.685,3.685,0,0,1,1.672-6.98Z" transform="translate(125.674 119.125)" fill="#6c63ff" stroke="#6c63ff" stroke-miterlimit="22.926" stroke-width="0.36" fill-rule="evenodd"/><path d="M22.693,25.871c.073-3.054.073-6.108.073-9.089A13.486,13.486,0,0,0,14.84,18.6c.364,3.49.8,6.762,1.091,10.18A10.345,10.345,0,0,1,22.693,25.871Z" transform="translate(112.065 184.358)" fill="#4b45b2" stroke="#4b45b2" stroke-miterlimit="22.926" stroke-width="0.36" fill-rule="evenodd"/><path d="M24.628,27.305c-.291-3.417-.582-6.835-.945-10.325C19.1,19.307,15.9,23.015,13.43,27.96c2.69,1.6,4.8,3.054,7.489,4.654A12.67,12.67,0,0,1,24.628,27.305Z" transform="translate(103.223 185.977)" fill="#6c63ff" stroke="#6c63ff" stroke-miterlimit="22.926" stroke-width="0.36" fill-rule="evenodd"/><path d="M16.127,18.5c2.618,1.672,4.8,2.981,7.489,4.581a19.18,19.18,0,0,0-1.672,8.435c-3.054-.8-5.89-1.6-8.944-2.4A37.815,37.815,0,0,1,16.127,18.5Z" transform="translate(100.526 195.509)" fill="#4b45b2" stroke="#4b45b2" stroke-miterlimit="22.926" stroke-width="0.36" fill-rule="evenodd"/><path d="M13.406,19.96c3.054.8,5.89,1.6,8.944,2.4.073,3.926.073,7.853.218,11.416h-9.6A112.664,112.664,0,0,1,13.406,19.96Z" transform="translate(100.12 204.665)" fill="#6c63ff" stroke="#6c63ff" stroke-miterlimit="22.926" stroke-width="0.36" fill-rule="evenodd"/><path d="M4.358,22.78c7.344,1.309,9.6,5.453,9.743,11.125C7.993,34.632,4.139,28.742,4.358,22.78Z" transform="translate(46.272 222.35)" fill="#fc6681" stroke="#fc6681" stroke-miterlimit="22.926" stroke-width="0.14" fill-rule="evenodd"/><path d="M18.26,22.55c-7.635.945-9.816,4.29-10.18,10.616A10.342,10.342,0,0,0,18.26,22.55Z" transform="translate(69.672 220.908)" fill="#fac10d" stroke="#fac10d" stroke-miterlimit="22.926" stroke-width="0.14" fill-rule="evenodd"/><path d="M17.013,21.19c-6.908.945-9.743,3.345-10.543,9.889C11.414,31.951,15.777,27.443,17.013,21.19Z" transform="translate(59.575 212.379)" fill="#fc6681" stroke="#fc6681" stroke-miterlimit="22.926" stroke-width="0.14" fill-rule="evenodd"/><path d="M15.559,19.16C8.8,20.687,6.543,24.177,6.47,29.122,12.287,29.849,15.05,24.9,15.559,19.16Z" transform="translate(59.575 199.648)" fill="#fc6681" stroke="#fc6681" stroke-miterlimit="22.926" stroke-width="0.14" fill-rule="evenodd"/><path d="M4.59,18.67c6.108.654,10.689,2.545,12.507,9.089C11.207,28.268,4.735,24.632,4.59,18.67Z" transform="translate(47.785 196.575)" fill="#fc6681" stroke="#fc6681" stroke-miterlimit="22.926" stroke-width="0.14" fill-rule="evenodd"/><path d="M10.47,16.81c4.435,6.035,3.854,10.034-.145,15.415C6.4,28.08,6.907,21.245,10.47,16.81Z" transform="translate(66.555 184.911)" fill="#fac10d" stroke="#fac10d" stroke-miterlimit="22.926" stroke-width="0.14" fill-rule="evenodd"/><circle cx="2.109" cy="2.109" r="2.109" transform="translate(80.151 238.441)" fill="#fac10d" stroke="#fac10d" stroke-miterlimit="22.926" stroke-width="0.14"/><circle cx="1.963" cy="1.963" r="1.963" transform="translate(53.32 241.785)" fill="#fc6681" stroke="#fc6681" stroke-miterlimit="22.926" stroke-width="0.14"/><circle cx="2.109" cy="2.109" r="2.109" transform="translate(85.532 229.642)" fill="#fac10d" stroke="#fac10d" stroke-miterlimit="22.926" stroke-width="0.14"/><circle cx="1.963" cy="1.963" r="1.963" transform="translate(49.321 223.534)" fill="#fc6681" stroke="#fc6681" stroke-miterlimit="22.926" stroke-width="0.14"/><path d="M9.664,16.81c4.508,5.744,3.926,9.6-.073,14.688C5.665,27.644,6.174,21.027,9.664,16.81Z" transform="translate(61.907 184.911)" fill="#fc6681" stroke="#fc6681" stroke-miterlimit="22.926" stroke-width="0.14" fill-rule="evenodd"/><path d="M9,16.81c4.508,5.744,3.926,9.6-.073,14.688C5,27.644,5.514,21.027,9,16.81Z" transform="translate(57.768 184.911)" fill="#fac10d" stroke="#fac10d" stroke-miterlimit="22.926" stroke-width="0.14" fill-rule="evenodd"/><path d="M8.284,16.81c4.508,5.744,3.926,9.6-.073,14.688C4.285,27.644,4.794,21.027,8.284,16.81Z" transform="translate(53.253 184.911)" fill="#fc6681" stroke="#fc6681" stroke-miterlimit="22.926" stroke-width="0.14" fill-rule="evenodd"/><path d="M5.919,74.451c-.654-7.126-.945-15.488,4.508-24.068A22.654,22.654,0,0,0,12.1,46.82a35.609,35.609,0,0,0,0-14.688c-.364-1.454-.727-2.981-1.163-4.435A35.355,35.355,0,0,0,7.228,18.68" transform="translate(53.946 196.638)" fill="none" stroke="#fc6681" stroke-miterlimit="22.926" stroke-width="1" fill-rule="evenodd"/><path d="M12.9,68.839c.073-6.69.145-12.943-4.145-17.96C2.79,44.044,7.371,25.793,11.007,18.74" transform="translate(55.838 197.014)" fill="none" stroke="#fac10d" stroke-miterlimit="22.926" stroke-width="1" fill-rule="evenodd"/><path d="M7.023,69.027c-.291-16.506,3.563-14.034,6.108-21.741,3.127-9.671-1.309-20-4.726-28.576" transform="translate(62.948 196.826)" fill="none" stroke="#fc6681" stroke-miterlimit="22.926" stroke-width="1" fill-rule="evenodd"/><path d="M14.5,57.351c-.364-7.708.945-12.652-1.891-17.378C7.3,31.32,7.448,27.611,7.23,21.14" transform="translate(64.341 212.065)" fill="none" stroke="#fac10d" stroke-miterlimit="22.926" stroke-width="1" fill-rule="evenodd"/><path d="M7.35,31.232C9.968,27.088,14.912,22,20.438,20.98" transform="translate(65.094 211.062)" fill="none" stroke="#fac10d" stroke-miterlimit="22.926" stroke-width="1" fill-rule="evenodd"/><path d="M6.53,32.257c2.909-5.09,7.489-8.435,13.67-10.107" transform="translate(59.951 218.399)" fill="none" stroke="#fac10d" stroke-miterlimit="22.926" stroke-width="1" fill-rule="evenodd"/><path d="M7.23,35.845A57.819,57.819,0,0,1,12.611,18.83" transform="translate(64.341 197.579)" fill="none" stroke="#fac10d" stroke-miterlimit="22.926" stroke-width="1" fill-rule="evenodd"/><path d="M18.93,32.727c-4.654-6.544-9.162-9.6-13.67-10.107" transform="translate(51.987 221.347)" fill="none" stroke="#fc6681" stroke-miterlimit="22.926" stroke-width="1" fill-rule="evenodd"/><path d="M18.37,29.883c-5.6-7.2-9.889-9.38-13.67-9.743" transform="translate(48.475 205.794)" fill="none" stroke="#fc6681" stroke-miterlimit="22.926" stroke-width="1" fill-rule="evenodd"/><path d="M18.054,19.75c-6.253,1.163-9.38,3.926-10.834,10.4C12.673,30.657,17.545,25.931,18.054,19.75Z" transform="translate(64.278 203.348)" fill="#fac10d" stroke="#fac10d" stroke-miterlimit="22.926" stroke-width="0.14" fill-rule="evenodd"/><path d="M9.434,51.673c-2.4-.582-6.326-1.309-5.744-3.636,1.745-6.253,8.871-11.343,15.415-18.251a19.256,19.256,0,0,0,1.745-2.908c.8-1.309,2.545-1.6,4.29-1.309a47.805,47.805,0,0,1,19.342,6.908c.873.582,1.018,1.891,1.963,2.472,5.308,3.2,11.852,4.217,18.542,5.817,1.6.364-3.563,13.67-11.634,13.961A245.057,245.057,0,0,1,9.434,51.673Z" transform="translate(41.777 239.194)" fill="#a8a8a8" stroke="#a8a8a8" stroke-miterlimit="22.926" stroke-width="0.36" fill-rule="evenodd"/><g transform="translate(95.712 97.306)"><path d="M12.227,2.45h16.8a1.614,1.614,0,0,1,1.6,1.6h0a1.614,1.614,0,0,1-1.6,1.6h-16.8A1.553,1.553,0,0,1,10.7,4.05h0A1.553,1.553,0,0,1,12.227,2.45Z" transform="translate(-9.609 -2.45)" fill="#eef1f9" stroke="#eef1f9" stroke-miterlimit="22.926" stroke-width="0.14" fill-rule="evenodd"/><path d="M12.74,2.91h16.8a1.553,1.553,0,0,1,1.6,1.527h0a1.614,1.614,0,0,1-1.6,1.6H12.74a1.614,1.614,0,0,1-1.6-1.6h0a1.553,1.553,0,0,1,1.6-1.527Z" transform="translate(-6.85 0.435)" fill="#eef1f9" stroke="#eef1f9" stroke-miterlimit="22.926" stroke-width="0.14" fill-rule="evenodd"/><path d="M12.15,3.35h16.8a1.553,1.553,0,0,1,1.527,1.6h0a1.553,1.553,0,0,1-1.527,1.6H12.15a1.614,1.614,0,0,1-1.6-1.6h0A1.614,1.614,0,0,1,12.15,3.35Z" transform="translate(-10.55 3.194)" fill="#eef1f9" stroke="#eef1f9" stroke-miterlimit="22.926" stroke-width="0.14" fill-rule="evenodd"/></g><g transform="translate(155.336 80)"><path d="M37.586.07H20.79a1.614,1.614,0,0,0-1.6,1.6h0A1.553,1.553,0,0,0,20.79,3.2h16.8a1.553,1.553,0,0,0,1.6-1.527h0a1.614,1.614,0,0,0-1.6-1.6Z" transform="translate(-15.991 -0.07)" fill="#eef1f9" stroke="#eef1f9" stroke-miterlimit="22.926" stroke-width="0.14" fill-rule="evenodd"/><path d="M37.074.52h-16.8a1.553,1.553,0,0,0-1.527,1.6h0a1.553,1.553,0,0,0,1.527,1.6h16.8a1.614,1.614,0,0,0,1.6-1.6h0A1.614,1.614,0,0,0,37.074.52Z" transform="translate(-18.75 2.752)" fill="#eef1f9" stroke="#eef1f9" stroke-miterlimit="22.926" stroke-width="0.14" fill-rule="evenodd"/><path d="M37.664.97h-16.8a1.6,1.6,0,0,0-1.527,1.6h0A1.586,1.586,0,0,0,20.867,4.1h16.8a1.6,1.6,0,0,0,1.6-1.527h0A1.614,1.614,0,0,0,37.664.97Z" transform="translate(-15.05 5.574)" fill="#eef1f9" stroke="#eef1f9" stroke-miterlimit="22.926" stroke-width="0.14" fill-rule="evenodd"/></g><circle cx="9.453" cy="9.453" r="9.453" transform="translate(241.282 85.526)" fill="#bdb9ff" stroke="#bdb9ff" stroke-miterlimit="22.926" stroke-width="0.36"/><g transform="translate(226.476 90.761)" opacity="0.78"><path d="M47.006,1.55H30.21a1.614,1.614,0,0,0-1.6,1.6h0a1.553,1.553,0,0,0,1.6,1.527h16.8A1.491,1.491,0,0,0,48.533,3.15h0A1.553,1.553,0,0,0,47.006,1.55Z" transform="translate(-25.338 -1.55)" fill="#eef1f9" stroke="#eef1f9" stroke-miterlimit="22.926" stroke-width="0.14" fill-rule="evenodd"/><path d="M46.556,2H29.76a1.614,1.614,0,0,0-1.6,1.6h0a1.614,1.614,0,0,0,1.6,1.6h16.8a1.614,1.614,0,0,0,1.6-1.6h0A1.614,1.614,0,0,0,46.556,2Z" transform="translate(-28.16 1.272)" fill="#eef1f9" stroke="#eef1f9" stroke-miterlimit="22.926" stroke-width="0.14" fill-rule="evenodd"/><path d="M47.084,2.45h-16.8a1.553,1.553,0,0,0-1.527,1.6h0a1.491,1.491,0,0,0,1.527,1.527h16.8a1.553,1.553,0,0,0,1.6-1.527h0A1.614,1.614,0,0,0,47.084,2.45Z" transform="translate(-24.397 4.094)" fill="#eef1f9" stroke="#eef1f9" stroke-miterlimit="22.926" stroke-width="0.14" fill-rule="evenodd"/></g></g></g></svg>