<svg xmlns="http://www.w3.org/2000/svg" width="234.718" height="184.336" viewBox="0 0 234.718 184.336"><g transform="translate(6.831 0.004)"><g transform="translate(0.35 0.348)"><g transform="translate(0 50.903)"><g transform="translate(0.908 74.847)"><path d="M.62,87.482c12.48-8.107,40.434-19.477,39.9-49.752-7.165,39.358-9.89,52.881,23.615,56.244" transform="translate(-7.62 -37.73)" fill="none" stroke="#332c2b" stroke-miterlimit="22.926" stroke-width="4" fill-rule="evenodd"/><path d="M105.361,87.482C92.914,79.375,64.96,68.005,65.5,37.73c7.165,39.358,9.856,52.881-23.648,56.244" transform="translate(107.844 -37.73)" fill="none" stroke="#332c2b" stroke-miterlimit="22.926" stroke-width="4" fill-rule="evenodd"/></g><g transform="translate(36.027 14.734)"><rect width="5.18" height="48.238" fill="#37474f" stroke="#37474f" stroke-miterlimit="22.926" stroke-width="0.7"/><rect width="5.18" height="48.238" transform="translate(121.874)" fill="#37474f" stroke="#37474f" stroke-miterlimit="22.926" stroke-width="0.7"/></g><path d="M7.885,21.96H196.869A7.566,7.566,0,0,1,204.4,29.5h0a7.566,7.566,0,0,1-7.535,7.535H7.885A7.566,7.566,0,0,1,.35,29.5h0A7.566,7.566,0,0,1,7.885,21.96Z" transform="translate(-0.35 -0.162)" fill="rgba(51,44,43,0.5)" fill-rule="evenodd"/><rect width="204.054" height="15.07" rx="1.98" transform="translate(0 19.275)" fill="#e0e0e0" stroke="#e0e0e0" stroke-miterlimit="22.926" stroke-width="0.7"/><path d="M7.885,16.17H196.869a7.566,7.566,0,0,1,7.535,7.535h0a7.566,7.566,0,0,1-7.535,7.535H7.885A7.566,7.566,0,0,1,.35,23.705h0A7.566,7.566,0,0,1,7.885,16.17Z" transform="translate(-0.35 -13.849)" fill="rgba(51,44,43,0.5)" fill-rule="evenodd"/><path d="M7.885,34.14H196.869a7.544,7.544,0,0,1,7.535,7.535h0a7.566,7.566,0,0,1-7.535,7.535H7.885A7.566,7.566,0,0,1,.35,41.675h0A7.544,7.544,0,0,1,7.885,34.14Z" transform="translate(-0.35 28.63)" fill="rgba(51,44,43,0.5)" fill-rule="evenodd"/><rect width="204.054" height="15.07" rx="1.98" fill="#e0e0e0" stroke="#e0e0e0" stroke-miterlimit="22.926" stroke-width="0.7"/><path d="M7.885,27.85H196.869a7.566,7.566,0,0,1,7.535,7.535h0a7.566,7.566,0,0,1-7.535,7.535H7.885A7.566,7.566,0,0,1,.35,35.385h0A7.566,7.566,0,0,1,7.885,27.85Z" transform="translate(-0.35 13.762)" fill="rgba(51,44,43,0.5)" fill-rule="evenodd"/><rect width="204.054" height="15.07" rx="1.98" transform="translate(0 38.887)" fill="#e0e0e0" stroke="#e0e0e0" stroke-miterlimit="22.926" stroke-width="0.7"/><rect width="204.054" height="15.07" rx="1.98" transform="translate(0 60.281)" fill="#37474f" stroke="#37474f" stroke-miterlimit="22.926" stroke-width="0.7"/></g><g transform="translate(106.51 5.142)"><path d="M46.554,59.609c-2.052,3.095,2.388,7.3,6.459,5.988,14.734-5.887,13.321-23.514,4.777-17.862A40.43,40.43,0,0,0,46.554,59.609Z" transform="translate(-3.862 103.922)" fill="#fefefe" fill-rule="evenodd"/><path d="M41.14,42.957c3.4,11.572,5.079,19.376,7.569,28.425,2.22-2.254,4.508-4.44,6.829-6.9A73.412,73.412,0,0,1,50.9,50.122a35.715,35.715,0,0,1-.572-7.569c-2.086-1.48-4.2-2.927-6.291-4.373-.942,1.11-1.951,2.153-2.792,3.364A1.607,1.607,0,0,0,41.14,42.957Z" transform="translate(-15.705 83.942)" fill="#f8c198" stroke="#f8c198" stroke-miterlimit="22.926" stroke-width="0.7" fill-rule="evenodd"/><path d="M43.254,56.127a5.26,5.26,0,0,0,.807,7.165c4.07,3.9,11.235-6.526,15.642-9.385,2.052-1.312,2.119-4.339-.471-6.391-1.85-1.446-3.768-2.22-6.459-1.177a59.347,59.347,0,0,0-9.52,9.789Z" transform="translate(-12.942 102.09)" fill="#fefefe" fill-rule="evenodd"/><path d="M52.42,68.961c-1.951-8.309-4.979-16.483-6.963-25.768-.336-1.547,1.615-2.287,2.792-2.994,3.768,2.725,7.569,5.483,11.37,8.208-1.076.5-2.187.875-3.229,1.446-.269.135-.235.5-.135.942a49.629,49.629,0,0,0,4.272,11.5,25.8,25.8,0,0,0-8.107,6.661Z" transform="translate(-5.322 88.717)" fill="#f8c198" stroke="#f8c198" stroke-miterlimit="22.926" stroke-width="0.7" fill-rule="evenodd"/><path d="M78.6,60c.2,12.144,6.728,19.914,13.086,27.786-15.844-3.936-17.627-10.058-32.5-17.9-5.55-2.927-9.049-2.657-16.281-8.073-5.046-3.768-4.844-14.431-1.446-19.242,5.416-8.612,14.532-12.648,24.456-13.187,9.924-.5,20.116-.74,30.04-.942,7.939,3.229,3.868,15.609-1.346,20.15-3.566,3.095-7.737,3.667-12.11,5.079C80.312,54.386,78.529,57.077,78.6,60Z" transform="translate(-20.498 60.941)" fill="#6c63ff" stroke="#6c63ff" stroke-miterlimit="22.926" stroke-width="0.7" fill-rule="evenodd"/><path d="M42.417,24.2c13.657-1.985,26.743-1.312,39.156,4.541,4.979.034,7.333-3.7,7.232-8.275C73.062,13.974,57.42,11.249,40.937,18.28a2.512,2.512,0,0,0-2.388.135c-11.706,8.275.1,15.979,3.868,5.786Z" transform="translate(-33.499 27.111)" fill="#f8c198" stroke="#f8c198" stroke-miterlimit="22.926" stroke-width="0.7" fill-rule="evenodd"/><path d="M50.829,16.5a37.56,37.56,0,0,1-.135,4.1c-.3,3.667,2.758,4.777,5.18,4.844A5.2,5.2,0,0,0,61.19,20.54a26.241,26.241,0,0,0,.135-3.7c-.269-5.18-10.529-4.1-10.5-.336Z" transform="translate(7.101 25.153)" fill="#f5b89c" stroke="#f5b89c" stroke-miterlimit="22.926" stroke-width="0.7" fill-rule="evenodd"/><circle cx="16.92" cy="16.92" r="16.92" transform="translate(46.526 8.523)" fill="#f8c198" stroke="#f8c198" stroke-miterlimit="22.926" stroke-width="0.7"/><path d="M49.155,15.916c3.028,3.465,6.223,5.45,7.905,10.226,2.321,6.459,3.8,12.446,6.8,17.324a81.941,81.941,0,0,0,30.41,14.566c5.113.908,10.226,1.716,15.037.437,4.407-1.177,8.679-3.028,9.722-8.78,1.177-5.517-2.355-12.581-7.064-15.609-3.2-2.018-5.18-3.3-6.728-6.425-5.349-10.7-5.92-21.024-18.67-25.128-3.33-1.076-6.122-.606-8.881-.1C71.391,3.7,65.134,4.983,58.843,6.262c-1.749.37-6.728-2.657-9.924,3.431-.908,1.817-.908,4.878.235,6.223Z" transform="translate(1.408 -1.876)" fill="tomato" stroke="tomato" stroke-miterlimit="22.926" stroke-width="0.7" fill-rule="evenodd"/><path d="M75.258,59.583c-7.8.168-14.6.336-22.4.5-.875-.606-1.581-2.691-1.615-4.642-.034-2.96,0-5.248.135-8.242-1.379-5.113-2.96-9.924-3.9-15.171-.807-4.642,2.018-9.856,11.1-16.079,1.245,6.122,8.242,5.887,10.563-.673,6.459,2.96,10.832,8.006,10.9,13.691.1,8.477-.841,16.012-1.009,23.245-.067,3.095-2.254,5.45-3.768,7.367Z" transform="translate(-0.778 29.808)" fill="#fefefe" stroke="#d0cde1" stroke-miterlimit="22.926" stroke-width="0.27" fill-rule="evenodd"/><path d="M71.113,37.46c-.3-5.517-2.254-9.116-4.2-14.868-.976-2.859,5.45-7.1,7.872-3.2,2.086,5.18,6.425,26.2.774,30.679-5.954,4.676-10.5,8.242-16.248,12.413-3.566,1.682-13.96,1.076-12.312-3.5A5.207,5.207,0,0,1,53.082,57c5.618-3.566,11.2-7.232,16.046-11.942C70.81,43.414,71.315,40.958,71.113,37.46Z" transform="translate(-2.015 35.818)" fill="#f8c198" stroke="#f8c198" stroke-miterlimit="22.926" stroke-width="0.7" fill-rule="evenodd"/></g><g transform="translate(18.472)"><path d="M39.913,75.279C38.9,84.429,35.54,91.7,32.244,98.524c3.095.976,6.19,1.951,9.284,2.96C46.271,84.732,53.537,70.3,50.543,53.347c6.156,7.1,6.761,11,5.18,20.419-1.413,7.4-4.2,13.523-7.165,19.511,3.095.1,6.19.235,9.284.336C61.678,80.8,70.02,62.7,64,50.151c-2.321-4.911-4.2-9.621-11.067-13.456a34.49,34.49,0,0,0-9.89-3.734c.807-.976.774-2.153,1.043-3.6-11.37-.841-21.731-1.245-33.1-2.052A17.247,17.247,0,0,0,5.9,37.738c-.37,3.9.74,7.771,7.5,10.7a27.313,27.313,0,0,0,12.413.807c13.59,6.29,15.609,12.547,14.095,26.037Z" transform="translate(-5.841 63.388)" fill="#2f2e41" stroke="#2f2e41" stroke-miterlimit="22.926" stroke-width="0.7" fill-rule="evenodd"/><path d="M12.316,51.157c.976-1.85,1.951-3.4,5.55-2.489l9.284,2.927c3.734,1.413,4.878,3.566,4.911,5.988-.336,3.734-2.725,4.339-5.887,3.734A50,50,0,0,1,13.628,55.4C11.811,54.218,11.576,53.445,12.316,51.157Z" transform="translate(8.536 113.244)" fill="#37474f" stroke="#37474f" stroke-miterlimit="22.926" stroke-width="0.7" fill-rule="evenodd"/><path d="M17.9,52.184a3.845,3.845,0,0,1,3.2-5.079c5.113-.2,10.462-.4,13.893.639,5.483,1.716,5.685,8.679-.841,9.116C30.51,57.1,19.477,56.052,17.9,52.184Z" transform="translate(22.063 109.796)" fill="#37474f" stroke="#37474f" stroke-miterlimit="22.926" stroke-width="0.7" fill-rule="evenodd"/><path d="M23.888,28.905c9.688-5.012,22.74-6.8,40.03-3.768a4.134,4.134,0,0,0,2.691,2.456c4.239.976,12.009,2.187,11.269-3.835-.4-3.532-3.9-5.382-11.538-4-15.1-6.593-32.8-6.963-50.089.538-3.162,1.783-1.917,13.523,7.636,8.612Z" transform="translate(15.095 33.671)" fill="#f8c198" stroke="#f8c198" stroke-miterlimit="22.926" stroke-width="0.7" fill-rule="evenodd"/><path d="M14.192,13.747a2.919,2.919,0,0,0-2.725,2.624,25.623,25.623,0,0,0,.034,3.936,1.363,1.363,0,0,0,1.177,1.547,56.033,56.033,0,0,0,7.131.5,1.7,1.7,0,0,0,1.514-1.413A44.092,44.092,0,0,0,22,16.3a2.13,2.13,0,0,0-1.716-2.287,21.723,21.723,0,0,0-6.089-.269Z" transform="translate(7.265 31.101)" fill="#f5b89c" stroke="#f5b89c" stroke-miterlimit="22.926" stroke-width="0.7" fill-rule="evenodd"/><circle cx="17.122" cy="17.122" r="17.122" transform="translate(7.766 14.27)" fill="#f8c198" stroke="#f8c198" stroke-miterlimit="22.926" stroke-width="0.7"/><path d="M7.442,44.334c-1.278,6.021,0,7.905,1.278,10.327,10.865.807,21.7,1.581,32.563,2.388a8.146,8.146,0,0,0,2.624-4.979A138.727,138.727,0,0,0,43.1,29.3c-2.758-9.52-8.746-13.254-16.147-13.657-3.868-.235-7.434.235-10.428,2.052a12.792,12.792,0,0,0-6.291,9.419c-.269,2.489-.067,4.2-.437,6.694A105.378,105.378,0,0,1,7.442,44.334Z" transform="translate(-3.309 35.667)" fill="#6c63ff" stroke="#6c63ff" stroke-miterlimit="22.926" stroke-width="0.7" fill-rule="evenodd"/><path d="M36.95,8.933c2.691-1.11,4.474-3.4,5.349-6.694A3.091,3.091,0,0,1,45.326.355c3.768-.269,4.239,6.9,2.826,9.924a16.474,16.474,0,0,1-7.165,8.107A27.93,27.93,0,0,0,29.549,28.444q-3.078,7.165-6.156,14.263a6.961,6.961,0,0,1-5.113,3.734,16.141,16.141,0,0,1-4.911-.336c-1.985-.3-3.2-2.187-4.306-4.541C7.28,35.743,6.439,31.4,7.516,26.863c1.144-5.046,3.868-10.394,10.092-12.716,7.367-2.758,7.771-.5,19.342-5.214Z" transform="translate(-3.012 -0.348)" fill="#332c2b" stroke="#332c2b" stroke-miterlimit="22.926" stroke-width="0.7" fill-rule="evenodd"/><path d="M9.661,39.647c-.74,4.138,0,13.422,3.768,15.979,7.468,5.079,11.1,6.728,16.719,11.2,3.868,3.095,13.052.034,11-3.734-1.076-1.547-2.792-1.547-4.1-1.648C26.918,54.886,21.5,52.767,21.569,49.167c.168-8.511,2.624-17.8,2.691-27.416.034-2.018-.706-3.835-2.456-4.575a4.6,4.6,0,0,0-3.768-.034,6.536,6.536,0,0,0-2.994,3.431C11.309,28.479,10.535,34.837,9.661,39.647Z" transform="translate(2.579 38.436)" fill="#f8c198" stroke="#f8c198" stroke-miterlimit="22.926" stroke-width="0.7" fill-rule="evenodd"/></g></g></g></svg>