<svg xmlns="http://www.w3.org/2000/svg" width="42.569" height="39.211" viewBox="0 0 42.569 39.211">
  <g id="refresh" transform="translate(-282 -569)">
    <path id="Path_422" data-name="Path 422" d="M90.554,454.364l3.578,3.12c-3.563,3.909-6.28,7.636-12.141,7.6-7.681-.043-10.381-9.6-12.374-9.747s-5.653,1.36-5.24,2.538a23.242,23.242,0,0,0,13.61,13.671,16.508,16.508,0,0,0,8.676,0c5.308-1.142,7.827-3.459,11.27-7.489a26.058,26.058,0,0,0,2.281-3.889l3.8.048-3.443-10.37-10.018,4.513Z" transform="translate(220.554 136.075)" fill="#332c2b" fill-rule="evenodd"/>
    <path id="Path_423" data-name="Path 423" d="M19.411,21.951l-3.578-3.12c3.563-3.909,6.28-7.636,12.141-7.6,7.681.043,10.381,9.6,12.374,9.747s5.653-1.36,5.24-2.538A23.242,23.242,0,0,0,31.978,4.765a16.509,16.509,0,0,0-8.676,0c-5.308,1.142-7.827,3.459-11.27,7.489a26.057,26.057,0,0,0-2.281,3.889L5.95,16.1l3.443,10.37,10.018-4.513Z" transform="translate(276.05 564.821)" fill="#332c2b" fill-rule="evenodd"/>
  </g>
</svg>
