<svg xmlns="http://www.w3.org/2000/svg" width="201.924" height="213.687" viewBox="0 0 201.924 213.687"><g transform="translate(-79.482 -324.841)"><g transform="translate(18.362)"><path d="M133.074,42.816c3.355,5.132.027,16.955-2.038,21.465a29.908,29.908,0,0,1-18.083,15.891c-10.444,3.535-21.239,3.193-32.134,1.461C64.107,78.963,41.8,66.4,35.905,49.328c-1.407-4.049-1.209-7.585,1.317-12.87C41.19,29.432,45.907,24.9,53.627,20.1c7.071-4.906,26.56,5.051,33.748,12.554,3.788,3.95-.388,7.837-4.455,8.6-9.533,2.363-16.649.415-21.591-5.42-.18,1.082,5.817,4.509,6.169,5.565.09.289-5.772,1-5.754,1.308A27.068,27.068,0,0,1,81.919,45C98.405,42.194,115.739,42.519,133.074,42.816Z" transform="translate(76.23 324.825)" fill="#f9d3ba" stroke="#7d513b" stroke-miterlimit="22.926" stroke-width="5.18" fill-rule="evenodd"/><path d="M38.065,47.708c-2.011-6.773,3.171-15.126,14.174-22.81-17.758,24.63-7.931,42.159,48.238,55.769-14.827,1.272-25.9-.984-38.8-7.82-11.86-6.232-21.318-15.191-23.609-25.139Z" transform="translate(75.973 324.24)" fill="#f3b091" fill-rule="evenodd"/><path d="M82.39,48.33c1.245,3.12,5.862,5.42,11.165,5.222,3.9-.144,8.4-1.641,11.048-4.618,4.7,7.513,11.688,8.947,18.353,2.336.018-.018.1-.144.126-.126,4.185,2.868,8.784,3.211,13.7,2.083-3.535,5.736-9.578,2.525-13.312-.532-4.284,6.052-14.656,5.032-18.8-.794-4.275,4.627-19.2,8.243-22.276-3.571Z" transform="translate(71.583 321.926)" fill="rgba(51,44,43,0.19)" fill-rule="evenodd"/><path d="M125.58,21.415q.514,10.525,1.037,21.059c.812,2.7,1.533,3.824,4.194,5a14.5,14.5,0,0,0,8.911.649c10.94-2.137,7.909-24.531,2.11-27.8-3.238-1.831-7.377-3.292-10.308-2.507-2.606.9-4.735,1.452-5.943,3.6Z" transform="translate(67.345 324.942)" fill="#f9d3ba" stroke="#7d513b" stroke-miterlimit="22.926" stroke-width="5.18" fill-rule="evenodd"/><path d="M136.016,48.082c-2.9-.3-5.916-.946-6.376-3.426l2.2-5.556c3.788,4.428,6.251,3.836,12.266,3.7-1.163,3.869-3.212,5.543-8.091,5.281Z" transform="translate(66.947 322.832)" fill="#f3b091" fill-rule="evenodd"/><path d="M105.41,13.257c.036,1.425.027,2.137.063,3.562,0,7.846,2.1,16.5,2.1,24.342,7.44,18.579,27.48,2.859,19.5-23.855C125,10.335,108.179,4.022,105.41,13.257Z" transform="translate(69.325 325.822)" fill="#f9d3ba" stroke="#7d513b" stroke-miterlimit="22.926" stroke-width="5.18" fill-rule="evenodd"/><path d="M112.82,11.487c-3,11.676.484,24.743,4.249,35.47-3.443.972-6.653-4.986-8.427-8.861-.1-3.45.19-7.334-.154-10.993-.027-.308-.507-3.884-.507-4.176a70.243,70.243,0,0,1-.274-8.14c1.032-2.25,1.55-3.362,5.112-3.3Z" transform="translate(69.202 325.57)" fill="#f3b091" fill-rule="evenodd"/><path d="M83.335,40.72c-.009-.081,4-.424,6.647-2.146,2.291-1.506,3.95-3.725,2.949-5.411-1.984-3.328-6.647-6.43-9.858-8.676C81.811,23.6,80.2,22.673,80.116,22.2c-.253-1.578-.415-3.247-.676-4.825C77.7,3.4,99.262.992,101.869,11.346c5.231,20.689,3.346,28.734.532,31.981C98.216,48.151,84.7,49.035,83.335,40.72Z" transform="translate(71.883 326.182)" fill="#f9d3ba" stroke="#7d513b" stroke-miterlimit="22.926" stroke-width="5.18" fill-rule="evenodd"/><path d="M87.736,8.289c-1.6,7.878-1.148,10.692.226,16.369-.969-.771-4.641-3.2-6.238-4.264C81.3,17.214,82.067,9.488,87.736,8.289Z" transform="translate(71.723 326.176)" fill="#f3b091" fill-rule="evenodd"/><path d="M86.846,46.428a20.685,20.685,0,0,0,5.313-2.55,5.789,5.789,0,0,0,2.75,4.1C94.509,48.315,88.533,48.82,86.846,46.428Z" transform="translate(72.101 322.353)" fill="#f7b496" fill-rule="evenodd"/><path d="M55.15,18.363c-.063-8.856,6.1-15.431,11.607-15.756,4.6-.271,9.524,1.894,11.508,6.322,3.716,8.27,2.174,15.494.875,14.268-3.048-2.85-19.39-8.108-23.99-4.834Z" transform="translate(74.256 326.415)" fill="#f9d3ba" stroke="#7d513b" stroke-miterlimit="22.926" stroke-width="5.18" fill-rule="evenodd"/><path d="M63.958,6.156c-1.752.758-4.791,3.806-5.9,8.694a30.672,30.672,0,0,1,7.474.509c-2.511-2.446-2.158-5.107-1.574-9.2Z" transform="translate(74.287 326.402)" fill="#f3b091" fill-rule="evenodd"/><path d="M58.21,88.05C77.294,95.788,96,99.9,118.483,92.3" transform="translate(73.956 320.029)" fill="none" stroke="#f7b496" stroke-miterlimit="22.926" stroke-width="5.18" fill-rule="evenodd"/><path d="M41.416,19.98C30.593,28.124,26.481,34.563,26.58,48.155" transform="translate(77.06 324.708)" fill="none" stroke="#f7b496" stroke-miterlimit="22.926" stroke-width="5.18" fill-rule="evenodd"/><path d="M105.79,4.913c7.991-4.69,18.77.37,24.5,5.8" transform="translate(69.287 324.4)" fill="none" stroke="#f7b496" stroke-miterlimit="22.926" stroke-width="5.18" fill-rule="evenodd"/><path d="M149.37,16.85c6.259,7.242,7.4,19.526,3.752,28.427" transform="translate(67.011 325.015)" fill="none" stroke="#f7b496" stroke-miterlimit="22.926" stroke-width="5.18" fill-rule="evenodd"/></g><path d="M142,181.124c-9.109-15.774-19.553-30.844-27.327-47.313-2.958-6.277,9.2-15.242,15.2-7.621,8.694,11.057,15.467,27.9,22.637,37.708,2.823-13.014,1.218-32.242,3.075-46.952,1.154-9.145,15.774-9.6,16.09.072.749,22.872-1.786,42.28-1.163,61.355-8.333,7.576-23.142,6.981-28.508,2.751Z" transform="translate(68.461 315.882)" fill="#f9d3ba" stroke="#7d513b" stroke-miterlimit="22.926" stroke-width="5.18" fill-rule="evenodd"/><path d="M162.289,117.835c-.372,5.105-.232,5.059-.464,7.194-.318,5.852-.278,11.2-.557,16.244,0-.117.026,7.258-1.043,17.613l2.151-.744c1.479-.974,1.794-32.818,2.371-37.454a32.008,32.008,0,0,1,1.822-7.6A5.432,5.432,0,0,0,162.289,117.835Z" transform="translate(64.105 315.592)" fill="#f3b091" fill-rule="evenodd"/><path d="M117.053,136.2c-1.064-2.291.685-4.9,1.29-5.483,4.347,15.215,15.1,29.392,24.107,42.442,2.128,3.093,5.033,6.007,7.864,9.6a20.638,20.638,0,0,1-4-.667,11.7,11.7,0,0,1-3.887-1.677c-4.158-7.441-8.676-14.322-13-21.429-2.859-4.708-5.483-9.262-8.036-14.123-1.533-2.922-2.877-5.42-4.347-8.658Z" transform="translate(68.215 313.842)" fill="#f3b091" fill-rule="evenodd"/><path d="M200.925,176.848c-14.971-.072-30.7-.965-38.862,7.937,2.354-2.417,5.465-3.49,7.062-7.233,2.769-6.485,2.931-12.139-2.273-13.1-2.21-.406-5,.117-8.018,1.966-8.55,5.222-17.235,13.727-21.221,24.513-7.819,21.158,17.83,31.3,36.472,26.263,20.987-5.862,36.274-17.469,26.84-40.35Z" transform="translate(66.306 310.545)" fill="#fcd4be" stroke="#7d513b" stroke-miterlimit="22.926" stroke-width="5.18" fill-rule="evenodd"/><path d="M165.406,184.56c1.659,6.061,1.281,12.437-.586,16.721" transform="translate(63.495 308.559)" fill="none" stroke="#7d513b" stroke-miterlimit="22.926" stroke-width="5.18" fill-rule="evenodd"/><path d="M168.68,186.883c3.986,8.577,11.237,8.162,14.953,6.394,8.7,9.434,16.946-.5,20.247-7.937-4.347-1.082-27.967-1.786-32.4-.5C170.186,185.394,170.385,185.674,168.68,186.883Z" transform="translate(63.116 308.6)" fill="rgba(51,44,43,0.2)" fill-rule="evenodd"/><path d="M186.81,184.662c3.436,13.249,21.943.28,19.76-19.012-1.272-7.386-4.978-11.5-12.59-9.83a9.155,9.155,0,0,0-4.753,3.328C192.717,169.249,191.1,177.447,186.81,184.662Z" transform="translate(61.337 311.416)" fill="#fcd4be" stroke="#7d513b" stroke-miterlimit="22.926" stroke-width="5.18" fill-rule="evenodd"/><path d="M189.662,187.631c.4-.685-.947-1.657-.279-3.046.532-1.1,1.145-1.01,1.714-2.985,1.569,3.8,3.7,6.232,6.991,5.619a13.072,13.072,0,0,1-2.1,1.688,8.492,8.492,0,0,1-2.525,1.075C192.3,190.294,190.549,189.8,189.662,187.631Z" transform="translate(61.181 308.85)" fill="#f3b091" fill-rule="evenodd"/><path d="M173.31,176.482c-.514-3.247,3.247-5.773,0-12.564a53.03,53.03,0,0,1,.731-6.115c1.7-9.2,15.161-10.3,16.423-2.5,1.326,8.216-.676,17.731-2.165,25.676-1.068,5.665-8.565,7.637-12.745,4.272a2.6,2.6,0,0,1-.58-.847C173.962,182.608,173.348,176.727,173.31,176.482Z" transform="translate(62.671 311.94)" fill="#fcd4be" stroke="#7d513b" stroke-miterlimit="22.926" stroke-width="5.18" fill-rule="evenodd"/><path d="M180.1,187.212c-1.788-.264-2.194-.443-2.941-1.791-.625-1.073-.731-2.73-.812-5.525,3.037,3.993,6.882,5.768,9.52,4.36-.843,2.709-3.881,3.308-5.766,2.956Z" transform="translate(62.302 309.007)" fill="#f3b091" fill-rule="evenodd"/><path d="M138.9,203.524c-.731-4.338-.126-6.016.667-9.01,1.019-3.851,3.734-7.873,6.187-11.355-.081,10.723-1.082,18.894,4.645,24.17,7.576,6.981,18.678,5.429,29.9,7.26-7.639,2.976-14.556,4.473-23.828,2.318-4.843-1.19-7.359-1.506-11.373-4.482-3.6-2.679-5.745-6.07-6.2-8.9Z" transform="translate(66.07 308.697)" fill="#f3b091" fill-rule="evenodd"/><path d="M136.45,221.31c8.415,8.757,19.679,10.922,32.928,9.091" transform="translate(66.279 304.953)" fill="none" stroke="#f7b496" stroke-miterlimit="22.926" stroke-width="5.18" fill-rule="evenodd"/><path d="M218.177,176.3c3.328,11.959,3.021,21.492-2.327,27.679" transform="translate(58.488 309.37)" fill="none" stroke="#f7b496" stroke-miterlimit="22.926" stroke-width="5.18" fill-rule="evenodd"/><path d="M170.46,103.28c4.162.53,7.287,1.54,9.521,3.559,4.058,3.652,4.122,10.39,4.1,18.583" transform="translate(62.942 316.535)" fill="none" stroke="#f7b496" stroke-miterlimit="22.926" stroke-width="5.18" fill-rule="evenodd"/><path d="M164.6,103.23a13.875,13.875,0,0,0-11.2,9.879" transform="translate(64.424 316.54)" fill="none" stroke="#f7b496" stroke-miterlimit="22.926" stroke-width="5.18" fill-rule="evenodd"/><path d="M113.43,153.19l14.5,24.513" transform="translate(68.538 311.637)" fill="none" stroke="#f7b496" stroke-miterlimit="22.926" stroke-width="5.18" fill-rule="evenodd"/><path d="M18.363,216.4c14.818,3.166,29.987,2.192,44.345.586,6.872-.776,13.645-6.755,13.844-14.43.514-19.76-.658-38.772.108-58.775.352-9.145-13.835-7.242-13.618-.153v-23.1c.045-5.42-10.426-6.99-11.337-.821,2.264-13.384-17.938-12.148-15.5-1.172-1.2-8.279-14.2-7.179-15.341,3.166l-1.7,28.355c-2.525-10.75-14.448-8.793-15.738-1.551-.072,15.711-1.7,31.494-.207,47.132.884,9.289,6.6,18.939,15.152,20.761Z" transform="translate(79.414 315.876)" fill="#fcd4be" stroke="#7d513b" stroke-miterlimit="22.926" stroke-width="5.18" fill-rule="evenodd"/><line x2="0.027" y2="52.065" transform="translate(115.589 434.028)" fill="none" stroke="#7d513b" stroke-miterlimit="22.926" stroke-width="5.18"/><line y2="51.66" transform="translate(131.237 434.416)" fill="none" stroke="#7d513b" stroke-miterlimit="22.926" stroke-width="5.18"/><line y2="29.509" transform="translate(142.456 459.001)" fill="none" stroke="#7d513b" stroke-miterlimit="22.926" stroke-width="5.18"/><path d="M20.96,154.42v29.825c14.755,5.3,17.9,13.1,18.173,21.51" transform="translate(77.611 311.517)" fill="none" stroke="#7d513b" stroke-miterlimit="22.926" stroke-width="5.18" fill-rule="evenodd"/><path d="M5.241,198.355a122.577,122.577,0,0,1-.334-16.506l.523-28.813a4.764,4.764,0,0,1,4.7-4.4c-.041,22.146-2.685,39.774.885,51.364,4.206,13.663,16.742,18.731,42.57,18.746-16.055,1.159-22.985,1.538-35.34-1.521-8.42-2.087-12.031-11.246-13.006-18.874Z" transform="translate(79.79 312.378)" fill="#f3b091" fill-rule="evenodd"/><path d="M25.044,125.253c-.586,9.479-1.3,16.171-1.533,25.857-.2,8.036.027,19.724.009,27.769,2.57-3.923,5.97-7.738,10.191-8.162-3.075-.676-4.717-3.869-4.464-7.332-1.335-14.385-.112-29.8.736-46.847-3.021,1.127-4.921,2.907-4.939,8.715Z" transform="translate(77.369 315.26)" fill="#f3b091" fill-rule="evenodd"/><path d="M42.178,117.994c-.316,17.469-.28,34.38.225,52.444,1.245-.577,3.021-.785,7.224-.622C43.188,154.854,44.875,134.607,47,112.61c-3.139.28-5.312,2.3-4.825,5.384Z" transform="translate(75.549 315.619)" fill="#f3b091" fill-rule="evenodd"/><path d="M59.62,121.4c-.14-2.235,1.553-2.69,3.222-2.477-.934,8.1-1.017,42.9.815,52.555a6.222,6.222,0,0,0-3.867-.709Z" transform="translate(74.052 315.275)" fill="#f3b091" fill-rule="evenodd"/><path d="M77.273,143.11c-2.841,10.158-3.752,21.7-.613,33.022-1.515-.2-1.867-1.206-4.482-.536l-.1-25.74C72.06,146.21,71.618,143.878,77.273,143.11Z" transform="translate(72.597 312.938)" fill="#f3b091" fill-rule="evenodd"/><path d="M25.4,105c-9.632,4.852-12.1,12.365-11.508,21" transform="translate(78.313 316.366)" fill="none" stroke="#f3b091" stroke-miterlimit="22.926" stroke-width="5.18" fill-rule="evenodd"/><path d="M78.23,133.586c10.011-2.056,12.59,6.43,11.9,15.792" transform="translate(71.992 313.591)" fill="none" stroke="#f3b091" stroke-miterlimit="22.926" stroke-width="5.18" fill-rule="evenodd"/><path d="M93,163.08V191.6" transform="translate(70.542 310.667)" fill="none" stroke="#f3b091" stroke-miterlimit="22.926" stroke-width="5.18" fill-rule="evenodd"/></g></svg>