<svg xmlns="http://www.w3.org/2000/svg" width="101.667" height="121.304" viewBox="0 0 101.667 121.304">
  <g id="gunting" transform="translate(-179.739 -417.225)">
    <path id="Path_309" data-name="Path 309" d="M142,181.124c-9.109-15.774-19.553-30.844-27.327-47.313-2.958-6.277,9.2-15.242,15.2-7.621,8.694,11.057,15.467,27.9,22.637,37.708,2.823-13.014,1.218-32.242,3.075-46.952,1.154-9.145,15.774-9.6,16.09.072.749,22.872-1.786,42.28-1.163,61.355-8.333,7.576-23.142,6.981-28.508,2.751Z" transform="translate(68.461 315.882)" fill="#f9d3ba" stroke="#7d513b" stroke-miterlimit="22.926" stroke-width="5.18" fill-rule="evenodd"/>
    <path id="Path_310" data-name="Path 310" d="M162.289,117.835c-.372,5.105-.232,5.059-.464,7.194-.318,5.852-.278,11.2-.557,16.244,0-.117.026,7.258-1.043,17.613l2.151-.744c1.479-.974,1.794-32.818,2.371-37.454a32.008,32.008,0,0,1,1.822-7.6A5.432,5.432,0,0,0,162.289,117.835Z" transform="translate(64.105 315.592)" fill="#f3b091" fill-rule="evenodd"/>
    <path id="Path_311" data-name="Path 311" d="M117.053,136.2c-1.064-2.291.685-4.9,1.29-5.483,4.347,15.215,15.1,29.392,24.107,42.442,2.128,3.093,5.033,6.007,7.864,9.6a20.638,20.638,0,0,1-4-.667,11.7,11.7,0,0,1-3.887-1.677c-4.158-7.441-8.676-14.322-13-21.429-2.859-4.708-5.483-9.262-8.036-14.123-1.533-2.922-2.877-5.42-4.347-8.658Z" transform="translate(68.215 313.842)" fill="#f3b091" fill-rule="evenodd"/>
    <path id="Path_312" data-name="Path 312" d="M200.925,176.848c-14.971-.072-30.7-.965-38.862,7.937,2.354-2.417,5.465-3.49,7.062-7.233,2.769-6.485,2.931-12.139-2.273-13.1-2.21-.406-5,.117-8.018,1.966-8.55,5.222-17.235,13.727-21.221,24.513-7.819,21.158,17.83,31.3,36.472,26.263,20.987-5.862,36.274-17.469,26.84-40.35Z" transform="translate(66.306 310.545)" fill="#fcd4be" stroke="#7d513b" stroke-miterlimit="22.926" stroke-width="5.18" fill-rule="evenodd"/>
    <path id="Path_313" data-name="Path 313" d="M165.406,184.56c1.659,6.061,1.281,12.437-.586,16.721" transform="translate(63.495 308.559)" fill="none" stroke="#7d513b" stroke-miterlimit="22.926" stroke-width="5.18" fill-rule="evenodd"/>
    <path id="Path_314" data-name="Path 314" d="M168.68,186.883c3.986,8.577,11.237,8.162,14.953,6.394,8.7,9.434,16.946-.5,20.247-7.937-4.347-1.082-27.967-1.786-32.4-.5C170.186,185.394,170.385,185.674,168.68,186.883Z" transform="translate(63.116 308.6)" fill="rgba(51,44,43,0.2)" fill-rule="evenodd"/>
    <path id="Path_315" data-name="Path 315" d="M186.81,184.662c3.436,13.249,21.943.28,19.76-19.012-1.272-7.386-4.978-11.5-12.59-9.83a9.155,9.155,0,0,0-4.753,3.328C192.717,169.249,191.1,177.447,186.81,184.662Z" transform="translate(61.337 311.416)" fill="#fcd4be" stroke="#7d513b" stroke-miterlimit="22.926" stroke-width="5.18" fill-rule="evenodd"/>
    <path id="Path_316" data-name="Path 316" d="M189.662,187.631c.4-.685-.947-1.657-.279-3.046.532-1.1,1.145-1.01,1.714-2.985,1.569,3.8,3.7,6.232,6.991,5.619a13.072,13.072,0,0,1-2.1,1.688,8.492,8.492,0,0,1-2.525,1.075C192.3,190.294,190.549,189.8,189.662,187.631Z" transform="translate(61.181 308.85)" fill="#f3b091" fill-rule="evenodd"/>
    <path id="Path_317" data-name="Path 317" d="M173.31,176.482c-.514-3.247,3.247-5.773,0-12.564a53.03,53.03,0,0,1,.731-6.115c1.7-9.2,15.161-10.3,16.423-2.5,1.326,8.216-.676,17.731-2.165,25.676-1.068,5.665-8.565,7.637-12.745,4.272a2.6,2.6,0,0,1-.58-.847C173.962,182.608,173.348,176.727,173.31,176.482Z" transform="translate(62.671 311.94)" fill="#fcd4be" stroke="#7d513b" stroke-miterlimit="22.926" stroke-width="5.18" fill-rule="evenodd"/>
    <path id="Path_318" data-name="Path 318" d="M180.1,187.212c-1.788-.264-2.194-.443-2.941-1.791-.625-1.073-.731-2.73-.812-5.525,3.037,3.993,6.882,5.768,9.52,4.36-.843,2.709-3.881,3.308-5.766,2.956Z" transform="translate(62.302 309.007)" fill="#f3b091" fill-rule="evenodd"/>
    <path id="Path_319" data-name="Path 319" d="M138.9,203.524c-.731-4.338-.126-6.016.667-9.01,1.019-3.851,3.734-7.873,6.187-11.355-.081,10.723-1.082,18.894,4.645,24.17,7.576,6.981,18.678,5.429,29.9,7.26-7.639,2.976-14.556,4.473-23.828,2.318-4.843-1.19-7.359-1.506-11.373-4.482-3.6-2.679-5.745-6.07-6.2-8.9Z" transform="translate(66.07 308.697)" fill="#f3b091" fill-rule="evenodd"/>
    <path id="Path_320" data-name="Path 320" d="M136.45,221.31c8.415,8.757,19.679,10.922,32.928,9.091" transform="translate(66.279 304.953)" fill="none" stroke="#f7b496" stroke-miterlimit="22.926" stroke-width="5.18" fill-rule="evenodd"/>
    <path id="Path_321" data-name="Path 321" d="M218.177,176.3c3.328,11.959,3.021,21.492-2.327,27.679" transform="translate(58.488 309.37)" fill="none" stroke="#f7b496" stroke-miterlimit="22.926" stroke-width="5.18" fill-rule="evenodd"/>
    <path id="Path_322" data-name="Path 322" d="M170.46,103.28c4.162.53,7.287,1.54,9.521,3.559,4.058,3.652,4.122,10.39,4.1,18.583" transform="translate(62.942 316.535)" fill="none" stroke="#f7b496" stroke-miterlimit="22.926" stroke-width="5.18" fill-rule="evenodd"/>
    <path id="Path_323" data-name="Path 323" d="M164.6,103.23a13.875,13.875,0,0,0-11.2,9.879" transform="translate(64.424 316.54)" fill="none" stroke="#f7b496" stroke-miterlimit="22.926" stroke-width="5.18" fill-rule="evenodd"/>
    <path id="Path_324" data-name="Path 324" d="M113.43,153.19l14.5,24.513" transform="translate(68.538 311.637)" fill="none" stroke="#f7b496" stroke-miterlimit="22.926" stroke-width="5.18" fill-rule="evenodd"/>
  </g>
</svg>
